<svg xmlns="http://www.w3.org/2000/svg" width="15" height="14.928" viewBox="0 0 15 14.928">
  <g id="グループ_24" data-name="グループ 24" transform="translate(-478.5 -130)">
    <path id="パス_36" data-name="パス 36" d="M491.146,165.4H479.227a.727.727,0,0,1-.727-.726V152.726a.727.727,0,0,1,.727-.726h5.93a.923.923,0,0,1,.933.886.9.9,0,0,1-.9.92h-4.879V163.6h9.758v-4.866a.923.923,0,0,1,.887-.933.9.9,0,0,1,.921.9v5.976A.727.727,0,0,1,491.146,165.4Z" transform="translate(0 -20.477)" fill="#fff"/>
    <path id="パス_37" data-name="パス 37" d="M560.993,130a.866.866,0,0,0,0,1.731h3.381l-5.62,5.62a.866.866,0,0,0,1.224,1.224l5.689-5.689v3.519a.866.866,0,0,0,1.731,0V130Z" transform="translate(-73.898)" fill="#fff"/>
  </g>
</svg>
